<svg xmlns="http://www.w3.org/2000/svg" version="1.1" xmlns:xlink="http://www.w3.org/1999/xlink" xmlns:svgjs="http://svgjs.dev/svgjs" width="128" height="128" viewBox="0 0 128 128"><g transform="matrix(0.8046875,0,0,0.8046875,12.5,12.5)"><svg viewBox="0 0 225 225" data-background-color="#ed1703" preserveAspectRatio="xMidYMid meet" height="128" width="128" xmlns="http://www.w3.org/2000/svg" xmlns:xlink="http://www.w3.org/1999/xlink"><g id="tight-bounds" transform="matrix(1,0,0,1,0,0)"><svg viewBox="0 0 225 225" height="225" width="225"><g><svg></svg></g><g><svg viewBox="0 0 225 225" height="225" width="225"><g><path d="M15.072 56.25l97.428-56.25 97.428 56.25 0 112.5-97.428 56.25-97.428-56.25zM20.715 165.492l91.785 52.992 91.785-52.992v-105.984l-91.785-52.992-91.785 52.992z" fill="#f7e1e1" fill-rule="nonzero" stroke="none" stroke-width="1" stroke-linecap="butt" stroke-linejoin="miter" stroke-miterlimit="10" stroke-dasharray="" stroke-dashoffset="0" font-family="none" font-weight="none" font-size="none" text-anchor="none" style="mix-blend-mode: normal" data-fill-palette-color="tertiary"></path></g><g transform="matrix(1,0,0,1,84.97328556629834,81.21375)"><svg viewBox="0 0 55.05342886740331 62.5725" height="62.5725" width="55.05342886740331"><g><svg viewBox="0 0 55.05342886740331 62.5725" height="62.5725" width="55.05342886740331"><g><svg viewBox="0 0 55.05342886740331 62.5725" height="62.5725" width="55.05342886740331"><g><svg viewBox="0 0 55.05342886740331 62.5725" height="62.5725" width="55.05342886740331"><g><svg viewBox="0 0 55.05342886740331 62.5725" height="62.5725" width="55.05342886740331"><g transform="matrix(1,0,0,1,0,0)"><svg width="55.05342886740331" viewBox="2.3 -35.6 31.849999999999998 36.2" height="62.5725" data-palette-color="#f7e1e1"><path d="M19.15 0.6L19.15 0.6Q13.95 0.6 10.18-1.68 6.4-3.95 4.35-8.03 2.3-12.1 2.3-17.45L2.3-17.45Q2.3-22.85 4.35-26.93 6.4-31 10.18-33.3 13.95-35.6 19.15-35.6L19.15-35.6Q25.3-35.6 29.2-32.6 33.1-29.6 34.15-24.2L34.15-24.2 28.25-24.2Q27.55-27.25 25.25-29.05 22.95-30.85 19.1-30.85L19.1-30.85Q13.85-30.85 10.8-27.28 7.75-23.7 7.75-17.45L7.75-17.45Q7.75-11.25 10.8-7.7 13.85-4.15 19.1-4.15L19.1-4.15Q22.95-4.15 25.25-5.85 27.55-7.55 28.25-10.5L28.25-10.5 34.15-10.5Q33.1-5.3 29.2-2.35 25.3 0.6 19.15 0.6Z" opacity="1" transform="matrix(1,0,0,1,0,0)" fill="#f7e1e1" class="undefined-text-0" data-fill-palette-color="primary" id="text-0"></path></svg></g></svg></g></svg></g></svg></g><g></g></svg></g></svg></g></svg></g><defs></defs></svg><rect width="225" height="225" fill="none" stroke="none" visibility="hidden"></rect></g></svg></g></svg>